# xmcd
#
# Track frame offsets:
# 150
# 14263
# 25308
# 41854
# 55308
# 70326
# 88239
# 99999
# 114106
# 131459
# 143763
# 157844
# 176909
# 189419
#
# Disc length: 2713 seconds
#
#
# Revision: 0
# Processed by: cddbd v1.5.1PL0 Copyright (c) Steve Scherf et al.
# Submitted via: FreeRIP 2.942 
#
DISCID=b80a970e
DTITLE=Norah Jones - Come Away With Me
DYEAR=1900
DGENRE=Blues
TTITLE0=Don´t know why
TTITLE1=Seven years
TTITLE2=Cold cold heart
TTITLE3=Feelin´ the same way
TTITLE4=Come away with me
TTITLE5=Shoot the moon
TTITLE6=Turn me on
TTITLE7=Lonestar
TTITLE8=I´ve got to see you again
TTITLE9=Painter Song
TTITLE10=One Flight Down
TTITLE11=Nightingale
TTITLE12=The long day is over
TTITLE13=The nearness of you
EXTD=
EXTT0=
EXTT1=
EXTT2=
EXTT3=
EXTT4=
EXTT5=
EXTT6=
EXTT7=
EXTT8=
EXTT9=
EXTT10=
EXTT11=
EXTT12=
EXTT13=
PLAYORDER=
